<svg width="50" height="48" viewBox="0 0 50 48" fill="none" xmlns="http://www.w3.org/2000/svg">
<g clip-path="url(#clip0_3_80)">
<path d="M39.6811 15.5093C39.8432 15.6632 40.0552 15.7398 40.2672 15.7398C40.4791 15.7398 40.6915 15.6629 40.8536 15.5093L46.6296 10.0268C48.2842 8.45586 48.2842 5.89952 46.6296 4.32859C44.9746 2.7573 42.281 2.75802 40.6264 4.32859L40.2672 4.66886L39.9087 4.32859C38.2529 2.75766 35.5605 2.75766 33.9055 4.32859C33.1037 5.08968 32.6619 6.10144 32.6619 7.17751C32.6619 8.25358 33.1037 9.26571 33.9055 10.0264L39.6811 15.5093ZM35.078 5.4415C35.5826 4.96253 36.2448 4.72376 36.9069 4.72376C37.5691 4.72376 38.232 4.96289 38.7362 5.4415L39.6811 6.33876C39.8368 6.48614 40.0476 6.56922 40.2672 6.56922C40.4871 6.56922 40.698 6.48614 40.8536 6.33876L41.7989 5.4415C42.8081 4.48319 44.4487 4.48428 45.4571 5.4415C46.4656 6.39873 46.4656 7.95666 45.4571 8.91388L40.2672 13.8398L35.078 8.91388C34.5894 8.45008 34.3199 7.83312 34.3199 7.17787C34.3203 6.5219 34.5894 5.90494 35.078 5.4415Z" fill="white"/>
<path d="M48.0432 45.6488C40.9562 46.3951 35.3358 43.4165 35.2795 43.3865C35.0888 43.2832 34.8628 43.2554 34.6508 43.3107C34.5614 43.3334 25.647 45.6015 18.4671 44.0887C13.9911 43.1442 9.76928 40.1515 6.68644 37.9665C6.2724 37.6732 5.88005 37.3947 5.51168 37.1393C5.00859 36.79 4.20867 36.4996 3.50351 36.2431C3.1869 36.1282 2.75307 35.9704 2.65983 35.9151C2.57916 35.8552 2.53501 35.767 2.53501 35.6662V33.8421C2.57497 32.3987 8.95071 10.1885 9.93938 7.36307C9.96374 7.32984 10.0589 7.26446 10.1289 7.23304L22.7464 1.76276L26.8256 6.80355C27.0269 7.06471 27.0078 7.4299 26.781 7.67083L22.7502 11.9599C22.4865 12.2409 22.0424 12.2717 21.7669 12.0531L20.137 10.6267C19.946 10.4598 19.6742 10.4045 19.4197 10.449C19.1643 10.4923 18.936 10.665 18.818 10.8846C18.6818 11.1392 17.4476 11.4513 16.1888 11.4604L15.7786 11.421C15.4498 11.3838 15.1309 11.5467 14.9703 11.8216C14.8089 12.0965 14.8363 12.436 15.0388 12.6852C15.3889 13.1147 15.6617 13.4597 15.8162 13.6576L16.623 26.6748C16.123 28.5235 15.6648 29.0487 15.551 29.1539C15.215 29.2546 14.971 29.5526 14.971 29.9045C14.971 30.339 15.3424 30.6916 15.8002 30.6916C16.7406 30.6916 17.5397 29.5187 18.1813 27.2289C24.7759 22.5454 30.531 26.9656 30.9823 27.3294C33.0769 29.3247 33.2066 30.65 33.2108 30.7089C33.2207 31.1351 33.5879 31.4783 34.04 31.4783C34.4978 31.4783 34.8693 31.1261 34.8693 30.6916C34.8693 30.5106 34.8 28.9577 32.6541 26.7142C34.6778 24.3526 36.9821 22.9922 39.52 22.696C43.8955 22.1845 47.5736 24.9775 47.6105 25.0053C47.9659 25.2798 48.4873 25.2292 48.7765 24.8926C49.0657 24.5563 49.0136 24.0614 48.6596 23.7865C48.4884 23.654 44.4169 20.545 39.3343 21.1319C36.3633 21.474 33.6964 22.9991 31.3975 25.6685C29.5317 24.4642 24.1819 21.7384 18.1989 25.3033L17.4568 13.3322C17.4492 13.2029 17.4073 13.0775 17.3361 12.9674C18.0782 12.8839 18.9619 12.7001 19.6027 12.2998L20.6709 13.2343C21.6653 14.0264 23.1217 13.9278 23.987 13.0082L28.0178 8.71872C28.7614 7.92802 28.8234 6.73239 28.1525 5.86041L23.659 0.307419C23.4246 0.0173613 23.0098 -0.0812509 22.657 0.0711827L9.45 5.7972C9.31186 5.85463 8.61126 6.17647 8.38103 6.83389C7.91143 8.17184 0.876953 31.9844 0.876953 33.8396V35.6666C0.876953 36.2529 1.15437 36.795 1.63729 37.1545C1.87894 37.334 2.24009 37.4698 2.911 37.7133C3.45899 37.9127 4.20905 38.1847 4.5329 38.4097C4.89747 38.6625 5.28487 38.9374 5.69434 39.2278C8.89744 41.4985 13.284 44.6078 18.1079 45.6254C24.9749 47.0738 33.0361 45.3227 34.7638 44.9094C35.9177 45.4755 40.1509 47.3455 45.6929 47.3455C46.5107 47.3455 47.3574 47.305 48.2262 47.2129C48.6813 47.1652 49.009 46.7758 48.9588 46.3442C48.9078 45.9114 48.4964 45.5979 48.0432 45.6488Z" fill="white"/>
<path d="M43.9821 36.1131C43.9364 35.7194 43.5852 35.4131 43.1578 35.4131C42.7 35.4131 42.3286 35.7656 42.3286 36.2002C42.3286 36.7257 42.7377 38.5055 47.9962 39.337C48.0422 39.3442 48.0883 39.3478 48.1332 39.3478C48.5312 39.3478 48.8825 39.0751 48.9502 38.6904C49.0252 38.2616 48.72 37.8564 48.2686 37.7845C44.5914 37.2029 44.0312 36.2179 43.9821 36.1131Z" fill="white"/>
<path d="M28.0636 40.1519C17.2045 42.3597 12.5576 35.3073 12.3655 35.0064C12.1284 34.6347 11.6203 34.5151 11.2288 34.7384C10.836 34.962 10.7089 35.4453 10.9445 35.818C10.9993 35.9044 12.3187 37.9601 15.1397 39.7112C17.0835 40.9173 20.0476 42.1462 24.0567 42.1462C25.3921 42.1462 26.8431 42.01 28.4106 41.6914C28.8585 41.6004 29.1439 41.1818 29.048 40.757C28.9518 40.3322 28.5115 40.0602 28.0636 40.1519Z" fill="white"/>
</g>
<defs>
<clipPath id="clip0_3_80">
<rect width="49.8795" height="47.3455" fill="white"/>
</clipPath>
</defs>
</svg>
