<svg width="23" height="14" viewBox="0 0 23 14" fill="none" xmlns="http://www.w3.org/2000/svg">
<path d="M13.4676 6.02419H6.9142V8.27995H10.839C10.695 9.23695 9.65077 11.1168 6.9142 11.1168C4.5737 11.1168 2.62929 9.27112 2.62929 6.947C2.62929 4.65705 4.5737 2.81142 6.9142 2.81142C8.28249 2.81142 9.18268 3.35828 9.68678 3.83677L11.5592 2.12786C10.3349 1.03415 8.78659 0.384766 6.9142 0.384766C3.09739 0.384766 0.000732422 3.3241 0.000732422 6.947C0.000732422 10.6041 3.09739 13.5092 6.9142 13.5092C10.911 13.5092 13.5756 10.8775 13.5756 7.11789C13.5756 6.67357 13.5036 6.36597 13.4676 6.02419ZM20.129 6.22925V4.34945H18.1126V6.22925H16.0961V8.14324H18.1126V10.0572H20.129V8.14324H22.1454V6.22925H20.129Z" fill="url(#paint0_linear_3_74)"/>
<defs>
<linearGradient id="paint0_linear_3_74" x1="0.000732422" y1="6.947" x2="22.1454" y2="6.947" gradientUnits="userSpaceOnUse">
<stop stop-color="#9BF8F4"/>
<stop offset="1" stop-color="#6F7AF8"/>
<stop offset="1" stop-color="#6F7BF7"/>
</linearGradient>
</defs>
</svg>
