<svg width="150" height="17" viewBox="0 0 150 17" fill="none" xmlns="http://www.w3.org/2000/svg">
<path d="M22.044 0.644L17.754 16H14.124L11.242 5.066L8.228 16L4.62 16.022L0.484 0.644H3.784L6.49 12.568L9.614 0.644H13.046L15.994 12.502L18.722 0.644H22.044ZM37.1831 16.154C35.7458 16.154 34.4258 15.8167 33.2231 15.142C32.0204 14.4673 31.0671 13.536 30.3631 12.348C29.6591 11.1453 29.3071 9.78867 29.3071 8.278C29.3071 6.782 29.6591 5.44 30.3631 4.252C31.0671 3.04933 32.0204 2.11067 33.2231 1.436C34.4258 0.761333 35.7458 0.424 37.1831 0.424C38.6351 0.424 39.9551 0.761333 41.1431 1.436C42.3458 2.11067 43.2918 3.04933 43.9811 4.252C44.6851 5.44 45.0371 6.782 45.0371 8.278C45.0371 9.78867 44.6851 11.1453 43.9811 12.348C43.2918 13.536 42.3458 14.4673 41.1431 15.142C39.9404 15.8167 38.6204 16.154 37.1831 16.154ZM37.1831 13.404C38.1071 13.404 38.9211 13.1987 39.6251 12.788C40.3291 12.3627 40.8791 11.7613 41.2751 10.984C41.6711 10.2067 41.8691 9.30467 41.8691 8.278C41.8691 7.25133 41.6711 6.35667 41.2751 5.594C40.8791 4.81667 40.3291 4.22267 39.6251 3.812C38.9211 3.40133 38.1071 3.196 37.1831 3.196C36.2591 3.196 35.4378 3.40133 34.7191 3.812C34.0151 4.22267 33.4651 4.81667 33.0691 5.594C32.6731 6.35667 32.4751 7.25133 32.4751 8.278C32.4751 9.30467 32.6731 10.2067 33.0691 10.984C33.4651 11.7613 34.0151 12.3627 34.7191 12.788C35.4378 13.1987 36.2591 13.404 37.1831 13.404ZM61.2485 16L57.8605 10.016H56.4085V16H53.3285V0.644H59.0925C60.2805 0.644 61.2925 0.856666 62.1285 1.282C62.9645 1.69267 63.5879 2.25733 63.9985 2.976C64.4239 3.68 64.6365 4.472 64.6365 5.352C64.6365 6.364 64.3432 7.28067 63.7565 8.102C63.1699 8.90867 62.2972 9.466 61.1385 9.774L64.8125 16H61.2485ZM56.4085 7.706H58.9825C59.8185 7.706 60.4419 7.508 60.8525 7.112C61.2632 6.70133 61.4685 6.13667 61.4685 5.418C61.4685 4.714 61.2632 4.17133 60.8525 3.79C60.4419 3.394 59.8185 3.196 58.9825 3.196H56.4085V7.706ZM82.0903 16L76.5023 9.158V16H73.4223V0.644H76.5023V7.53L82.0903 0.644H85.8083L79.4723 8.256L85.9843 16H82.0903ZM101.138 16.154C99.7009 16.154 98.3809 15.8167 97.1782 15.142C95.9755 14.4673 95.0222 13.536 94.3182 12.348C93.6142 11.1453 93.2622 9.78867 93.2622 8.278C93.2622 6.782 93.6142 5.44 94.3182 4.252C95.0222 3.04933 95.9755 2.11067 97.1782 1.436C98.3809 0.761333 99.7009 0.424 101.138 0.424C102.59 0.424 103.91 0.761333 105.098 1.436C106.301 2.11067 107.247 3.04933 107.936 4.252C108.64 5.44 108.992 6.782 108.992 8.278C108.992 9.78867 108.64 11.1453 107.936 12.348C107.247 13.536 106.301 14.4673 105.098 15.142C103.896 15.8167 102.576 16.154 101.138 16.154ZM101.138 13.404C102.062 13.404 102.876 13.1987 103.58 12.788C104.284 12.3627 104.834 11.7613 105.23 10.984C105.626 10.2067 105.824 9.30467 105.824 8.278C105.824 7.25133 105.626 6.35667 105.23 5.594C104.834 4.81667 104.284 4.22267 103.58 3.812C102.876 3.40133 102.062 3.196 101.138 3.196C100.214 3.196 99.3929 3.40133 98.6742 3.812C97.9702 4.22267 97.4202 4.81667 97.0242 5.594C96.6282 6.35667 96.4302 7.25133 96.4302 8.278C96.4302 9.30467 96.6282 10.2067 97.0242 10.984C97.4202 11.7613 97.9702 12.3627 98.6742 12.788C99.3929 13.1987 100.214 13.404 101.138 13.404ZM120.32 0.644V10.148C120.32 11.1893 120.591 11.9887 121.134 12.546C121.676 13.0887 122.439 13.36 123.422 13.36C124.419 13.36 125.189 13.0887 125.732 12.546C126.274 11.9887 126.546 11.1893 126.546 10.148V0.644H129.648V10.126C129.648 11.4313 129.362 12.5387 128.79 13.448C128.232 14.3427 127.477 15.0173 126.524 15.472C125.585 15.9267 124.536 16.154 123.378 16.154C122.234 16.154 121.192 15.9267 120.254 15.472C119.33 15.0173 118.596 14.3427 118.054 13.448C117.511 12.5387 117.24 11.4313 117.24 10.126V0.644H120.32ZM149.073 0.644V3.13H144.981V16H141.901V3.13H137.809V0.644H149.073Z" fill="url(#paint0_linear_3_437)"/>
<defs>
<linearGradient id="paint0_linear_3_437" x1="0" y1="8" x2="150" y2="8" gradientUnits="userSpaceOnUse">
<stop stop-color="#9BF8F4"/>
<stop offset="1" stop-color="#6F7AF8"/>
<stop offset="1" stop-color="#6F7BF7"/>
</linearGradient>
</defs>
</svg>
