<svg width="17" height="16" viewBox="0 0 17 16" fill="none" xmlns="http://www.w3.org/2000/svg">
<path d="M3.81292 15.4125V5.19315H0.464212V15.4125H3.81292ZM2.12056 3.82602C3.20079 3.82602 4.06497 2.97156 4.06497 1.94622C4.06497 0.955045 3.20079 0.134766 2.12056 0.134766C1.07634 0.134766 0.212158 0.955045 0.212158 1.94622C0.212158 2.97156 1.07634 3.82602 2.12056 3.82602ZM16.3076 15.4125H16.3436V9.80723C16.3436 7.07296 15.6954 4.95391 12.3107 4.95391C10.6904 4.95391 9.61015 5.80836 9.14205 6.59446H9.10604V5.19315H5.90136V15.4125H9.25007V10.3541C9.25007 9.02112 9.50212 7.75653 11.2305 7.75653C12.9589 7.75653 12.9949 9.26037 12.9949 10.4566V15.4125H16.3076Z" fill="url(#paint0_linear_3_77)"/>
<defs>
<linearGradient id="paint0_linear_3_77" x1="0.212158" y1="7.77362" x2="16.3436" y2="7.77362" gradientUnits="userSpaceOnUse">
<stop stop-color="#9BF8F4"/>
<stop offset="1" stop-color="#6F7AF8"/>
<stop offset="1" stop-color="#6F7BF7"/>
</linearGradient>
</defs>
</svg>
