<svg width="112" height="112" viewBox="0 0 112 112" fill="none" xmlns="http://www.w3.org/2000/svg">
<path d="M39.4285 38.748V28.2727H36.2142C35.0656 28.2727 34.0045 27.6749 33.4305 26.7045C32.8565 25.7342 32.8565 24.5385 33.4305 23.5682C34.0045 22.5979 35.0656 22 36.2142 22H74.7858C75.9344 22 76.9955 22.5979 77.5695 23.5682C78.1435 24.5385 78.1435 25.7342 77.5695 26.7045C76.9955 27.6748 75.9344 28.2727 74.7858 28.2727H71.5715V38.748C71.5794 42.91 69.8911 46.904 66.8784 49.8506L60.0323 56.5L65.1429 61.5813C68.1548 64.5278 69.8431 68.5219 69.8359 72.6838V84.7273H74.7858C75.9344 84.7273 76.9955 85.3251 77.5695 86.2955C78.1435 87.2658 78.1435 88.4615 77.5695 89.4318C76.9955 90.4021 75.9344 91 74.7858 91H36.2142C35.0656 91 34.0045 90.4021 33.4305 89.4318C32.8565 88.4615 32.8565 87.2658 33.4305 86.2955C34.0045 85.3252 35.0656 84.7273 36.2142 84.7273H41.0357V72.6838C41.0622 68.5037 42.7978 64.5069 45.8571 61.5813L50.9677 56.5L44.153 49.8506H44.1537C41.1295 46.9095 39.4291 42.9149 39.4283 38.748H39.4285Z" fill="url(#paint0_linear_3_372)"/>
<circle cx="56" cy="56" r="54" stroke="url(#paint1_linear_3_372)" stroke-width="4"/>
<defs>
<linearGradient id="paint0_linear_3_372" x1="78" y1="91" x2="27.3255" y2="87.8552" gradientUnits="userSpaceOnUse">
<stop stop-color="#4896D6"/>
<stop offset="0.583333" stop-color="#71C3F7"/>
<stop offset="1" stop-color="#A4CCFF"/>
</linearGradient>
<linearGradient id="paint1_linear_3_372" x1="8.34465e-07" y1="112" x2="125.473" y2="100.06" gradientUnits="userSpaceOnUse">
<stop stop-color="#4896D6"/>
<stop offset="0.583333" stop-color="#71C3F7"/>
<stop offset="1" stop-color="#A4CCFF"/>
</linearGradient>
</defs>
</svg>
