<svg width="112" height="112" viewBox="0 0 112 112" fill="none" xmlns="http://www.w3.org/2000/svg">
<circle cx="56" cy="56" r="54" stroke="url(#paint0_linear_3_378)" stroke-width="4"/>
<path d="M59.6264 45.9639C62.6978 46.6428 70.2395 44.7149 73.506 42.9618C74.8833 42.2194 75.341 41.1185 74.7423 39.7354C73.6259 37.1449 72.9073 34.346 73.3051 31.6083C73.553 29.9024 72.1215 28.3908 70.2192 29.247C63.4494 31.9578 58.2953 33.4288 53.167 31.9401C50.9965 31.3116 49.4759 32.8841 49.9199 35.0754C50.7203 39.0759 47.1582 40.9242 44.4481 39.2799C41.6401 37.5716 38.0908 39.5491 41.222 44.3115C44.6911 49.5854 49.2685 48.4461 50.2503 45.5921C51.2039 42.8332 53.3825 41.8543 56.0511 43.8927C57.2323 44.7872 58.1948 45.645 59.6262 45.9637L59.6264 45.9639Z" fill="url(#paint1_linear_3_378)"/>
<path d="M61.2979 62.4373C64.1589 63.5399 71.7688 62.8731 75.1964 61.7195C76.6524 61.2319 77.2596 60.2699 76.8979 58.8853C76.2129 56.2822 75.9538 53.5523 76.7597 51.0388C77.2611 49.4741 76.1143 47.8399 74.1339 48.3584C67.1584 49.8782 61.9377 50.4802 57.2033 48.3081C55.1926 47.3848 53.4839 48.6342 53.5712 50.756C53.7286 54.627 49.9965 55.8271 47.6226 53.8775C45.1628 51.8469 41.4171 53.1613 43.7195 58.104C46.2643 63.5761 50.8722 63.2068 52.2693 60.6739C53.6148 58.233 55.8839 57.6412 58.1512 59.9553C59.1526 60.9799 59.9513 61.9248 61.2976 62.4372L61.2979 62.4373Z" fill="url(#paint2_linear_3_378)"/>
<path d="M55.4539 28.913C58.4871 29.3538 65.665 26.821 68.7046 24.8033C69.9875 23.9503 70.3404 22.8125 69.6607 21.4771C68.3769 18.973 67.4674 16.2297 67.6371 13.4593C67.7477 11.733 66.2421 10.3298 64.4618 11.3389C58.0945 14.5973 53.2029 16.4796 48.1067 15.3964C45.9451 14.9425 44.5958 16.6354 45.1902 18.7952C46.2781 22.7376 42.9567 24.8695 40.1999 23.442C37.3389 21.9572 34.0426 24.2133 37.4486 28.731C41.2279 33.7336 45.5851 32.231 46.317 29.2926C47.0315 26.461 49.0748 25.3036 51.8237 27.1255C53.0371 27.9393 54.0406 28.7106 55.4538 28.9131L55.4539 28.913Z" fill="url(#paint3_linear_3_378)"/>
<path d="M52.6241 97.5516C55.2097 99.2769 62.9194 100.299 66.5994 99.9221C68.1504 99.758 68.9826 98.9394 68.9486 97.4881C68.8749 94.7652 69.2578 91.9984 70.6477 89.6922C71.5139 88.2597 70.7562 86.3838 68.6661 86.4567C61.3862 86.4167 56.0678 85.8578 51.8697 82.6529C50.0904 81.2989 48.103 82.1529 47.6944 84.2745C46.9415 88.1489 42.9595 88.5005 41.0588 86.0453C39.0925 83.4936 35.0677 83.9676 36.1961 89.3671C37.4395 95.3497 42.1005 96.0021 44.0815 93.8082C45.9887 91.6851 48.3791 91.5987 50.0848 94.3946C50.8441 95.6293 51.4148 96.7432 52.6242 97.5516L52.6241 97.5516Z" fill="url(#paint4_linear_3_378)"/>
<path d="M57.2848 80.1997C59.9838 81.8347 67.749 82.3845 71.3881 81.7321C72.9343 81.4564 73.7051 80.5375 73.565 79.0118C73.31 76.1474 73.4978 73.2086 74.7283 70.6871C75.4933 69.1217 74.6061 67.1978 72.5296 67.418C65.2632 67.8799 59.9169 67.6531 55.5121 64.5761C53.6388 63.2639 51.7185 64.3054 51.4497 66.567C50.9712 70.6864 47.0165 71.3396 44.9529 68.8816C42.8173 66.3343 38.835 67.1092 40.3264 72.7154C41.986 78.9299 46.6797 79.2859 48.4997 76.8414C50.2597 74.4794 52.6366 74.2253 54.5382 77.0483C55.3777 78.2975 56.023 79.4316 57.2851 80.1999L57.2848 80.1997Z" fill="url(#paint5_linear_3_378)"/>
<defs>
<linearGradient id="paint0_linear_3_378" x1="8.34465e-07" y1="112" x2="125.473" y2="100.06" gradientUnits="userSpaceOnUse">
<stop stop-color="#4896D6"/>
<stop offset="0.583333" stop-color="#71C3F7"/>
<stop offset="1" stop-color="#A4CCFF"/>
</linearGradient>
<linearGradient id="paint1_linear_3_378" x1="40" y1="48" x2="78.3858" y2="41.2714" gradientUnits="userSpaceOnUse">
<stop stop-color="#4896D6"/>
<stop offset="0.583333" stop-color="#71C3F7"/>
<stop offset="1" stop-color="#A4CCFF"/>
</linearGradient>
<linearGradient id="paint2_linear_3_378" x1="43" y1="63" x2="79.7263" y2="55.0786" gradientUnits="userSpaceOnUse">
<stop stop-color="#4896D6"/>
<stop offset="0.583333" stop-color="#71C3F7"/>
<stop offset="1" stop-color="#A4CCFF"/>
</linearGradient>
<linearGradient id="paint3_linear_3_378" x1="36" y1="32" x2="73.5437" y2="26.2159" gradientUnits="userSpaceOnUse">
<stop stop-color="#4896D6"/>
<stop offset="0.583333" stop-color="#71C3F7"/>
<stop offset="1" stop-color="#A4CCFF"/>
</linearGradient>
<linearGradient id="paint4_linear_3_378" x1="36" y1="100" x2="74.2556" y2="92.9217" gradientUnits="userSpaceOnUse">
<stop stop-color="#4896D6"/>
<stop offset="0.583333" stop-color="#71C3F7"/>
<stop offset="1" stop-color="#A4CCFF"/>
</linearGradient>
<linearGradient id="paint5_linear_3_378" x1="40" y1="82" x2="78.2556" y2="74.9217" gradientUnits="userSpaceOnUse">
<stop stop-color="#4896D6"/>
<stop offset="0.583333" stop-color="#71C3F7"/>
<stop offset="1" stop-color="#A4CCFF"/>
</linearGradient>
</defs>
</svg>
