<svg width="112" height="112" viewBox="0 0 112 112" fill="none" xmlns="http://www.w3.org/2000/svg">
<path d="M98.6829 52.6038H92.3837V41.235C92.3837 39.8691 91.2914 38.78 89.9618 38.78H86.8122V36.455C86.8122 35.0891 85.7199 34 84.3903 34H77.0712C75.7237 34 74.6493 35.1072 74.6493 36.455V52.6038H38.4178V36.455C38.4178 35.0891 37.3256 34 35.9959 34H28.6605C27.3131 34 26.2386 35.1072 26.2386 36.455V38.78H23.089C21.7416 38.78 20.6671 39.8872 20.6671 41.235V52.6038H14.3679C12.4934 52.6038 11 54.1358 11 56C11 57.8642 12.4935 59.3962 14.3504 59.3962H20.6496V70.765C20.6496 72.1309 21.7418 73.22 23.0715 73.22H26.2211V75.545C26.2211 76.9109 27.3133 78 28.643 78H35.9621C37.3096 78 38.384 76.8929 38.384 75.545V59.3962H74.6154V75.545C74.6154 76.9109 75.7077 78 77.0373 78H84.3565C85.7039 78 86.7783 76.8929 86.7783 75.545V73.22H89.9279C91.2754 73.22 92.3498 72.1128 92.3498 70.765V59.3962H98.6491C100.488 59.3962 101.999 57.8822 101.999 56C102.034 54.1359 100.54 52.6038 98.6835 52.6038H98.6829Z" fill="url(#paint0_linear_3_366)"/>
<circle cx="56" cy="56" r="54" stroke="url(#paint1_linear_3_366)" stroke-width="4"/>
<defs>
<linearGradient id="paint0_linear_3_366" x1="11" y1="78" x2="110.034" y2="58.51" gradientUnits="userSpaceOnUse">
<stop stop-color="#4896D6"/>
<stop offset="0.583333" stop-color="#71C3F7"/>
<stop offset="1" stop-color="#A4CCFF"/>
</linearGradient>
<linearGradient id="paint1_linear_3_366" x1="8.34465e-07" y1="112" x2="125.473" y2="100.06" gradientUnits="userSpaceOnUse">
<stop stop-color="#4896D6"/>
<stop offset="0.583333" stop-color="#71C3F7"/>
<stop offset="1" stop-color="#A4CCFF"/>
</linearGradient>
</defs>
</svg>
