<svg width="20" height="20" viewBox="0 0 20 20" fill="none" xmlns="http://www.w3.org/2000/svg">
<path d="M19.2139 6.10744C18.7102 4.91661 17.9893 3.84701 17.0711 2.92893C16.153 2.01086 15.0834 1.28984 13.8926 0.786095C12.6594 0.264543 11.3496 0 10 0C8.65036 0 7.34065 0.264529 6.10744 0.786095C4.91661 1.28984 3.84701 2.01071 2.92893 2.92893C2.01086 3.84701 1.28984 4.91656 0.786095 6.10744C0.264543 7.34065 0 8.65036 0 10C0 11.3496 0.264529 12.6594 0.786095 13.8926C1.28984 15.0834 2.01071 16.153 2.92893 17.0711C3.84701 17.9891 4.91656 18.7102 6.10744 19.2139C7.34065 19.7355 8.65036 20 10 20C11.3496 20 12.6594 19.7355 13.8926 19.2139C15.0834 18.7102 16.153 17.9893 17.0711 17.0711C17.9891 16.153 18.7102 15.0834 19.2139 13.8926C19.7355 12.6594 20 11.3496 20 10C20 8.65036 19.7355 7.34065 19.2139 6.10744ZM9.05739 13.6636C8.88491 13.8361 8.65132 13.9328 8.4078 13.9328C8.16426 13.9328 7.93029 13.8359 7.7582 13.6636L4.91493 10.8206L6.21413 9.52135L8.4078 11.715L13.7865 6.33632L15.0857 7.63533L9.05739 13.6636Z" fill="#A9A9A9"/>
</svg>
