<svg width="16" height="21" viewBox="0 0 16 21" fill="none" xmlns="http://www.w3.org/2000/svg">
<path d="M11.8649 0H4.13514C2.65398 0 1.44292 1.24697 1.44292 2.77205V9.55252C0.542887 10.8833 0 12.5031 0 14.2541C0 16.3041 0.726627 18.1784 1.92735 19.6194C2.66909 20.5065 3.77308 21 4.91512 21H11.0847C12.2269 21 13.3307 20.5065 14.0726 19.6192C15.2734 18.1782 16 16.3039 16 14.2539C16 12.5135 15.4722 10.8939 14.5571 9.56311V2.77233C14.5571 1.24725 13.3462 0.000281274 11.8649 0.000281274V0ZM12.4107 5.69344C12.4107 6.22627 12.2067 6.70673 11.8779 7.06359C11.6204 6.90869 11.3501 6.77483 11.0748 6.65417C10.6873 6.49413 10.2845 6.35497 9.86895 6.24987C9.27234 6.10027 8.64778 6.01623 8.00027 6.01623C7.35527 6.01623 6.73071 6.10027 6.1316 6.24987C5.71601 6.35479 5.3132 6.49395 4.92573 6.65417C4.65045 6.77483 4.38262 6.90887 4.12262 7.06359C3.79381 6.70928 3.58984 6.22627 3.58984 5.69344V3.92939C3.58984 2.83734 4.4566 1.93959 5.52234 1.93959H10.4759C11.5415 1.93959 12.4084 2.83734 12.4084 3.92939L12.4083 5.69344H12.4107Z" fill="url(#paint0_linear_3_269)"/>
<defs>
<linearGradient id="paint0_linear_3_269" x1="0" y1="10.5" x2="16" y2="10.5" gradientUnits="userSpaceOnUse">
<stop stop-color="#9BF8F4"/>
<stop offset="1" stop-color="#6F7AF8"/>
<stop offset="1" stop-color="#6F7BF7"/>
</linearGradient>
</defs>
</svg>
