<svg width="17" height="22" viewBox="0 0 17 22" fill="none" xmlns="http://www.w3.org/2000/svg">
<path d="M16.9843 6.31003L16.4816 0.524727C16.4473 0.193796 16.2761 0.000680281 15.9579 0.000680281C15.6388 0.000680281 15.4333 0.206155 15.4333 0.524727V5.36834C15.4333 5.70478 15.2167 5.92176 14.88 5.92176H14.8548C14.5185 5.92176 14.3014 5.70476 14.3014 5.36834L14.3015 0.524727C14.3015 0.206159 14.0959 0.000680281 13.7773 0.000680281C13.4586 0.000680281 13.2528 0.206155 13.2531 0.524727L13.2529 5.36834C13.2529 5.70478 13.0363 5.92176 12.6995 5.92176L12.6745 5.9216C12.3382 5.9216 12.1212 5.7046 12.1212 5.36817V0.52456C12.1212 0.205992 11.9157 0.000513185 11.5966 0C11.2784 0 11.1068 0.193445 11.0726 0.524218L10.5695 6.30909C10.4331 7.88222 11.19 9.16086 12.6724 9.51214L11.7379 19.5475C11.6611 20.8542 12.5596 21.5534 13.7771 21.5534C14.9946 21.5534 15.8927 20.8541 15.8158 19.5479L14.8818 9.51218C16.3641 9.16087 17.1208 7.88226 16.9842 6.30926L16.9843 6.31003Z" fill="url(#paint0_linear_3_274)"/>
<path d="M4.82312 9.51317L5.75729 19.5489C5.83397 20.8551 4.9359 21.5544 3.71824 21.5544C2.50075 21.5544 1.60233 20.8551 1.67953 19.5488L2.61403 9.51347C1.33107 8.97608 0 7.4467 0 4.96109C0.000334126 2.28107 1.6321 0.000732422 3.71858 0.000732422C5.80506 0.000732422 7.43665 2.28115 7.43665 4.96109C7.43648 7.44649 6.10574 8.97586 4.82312 9.51347V9.51317Z" fill="url(#paint1_linear_3_274)"/>
<defs>
<linearGradient id="paint0_linear_3_274" x1="10.5538" y1="10.7767" x2="16.9999" y2="10.7767" gradientUnits="userSpaceOnUse">
<stop stop-color="#9BF8F4"/>
<stop offset="1" stop-color="#6F7AF8"/>
<stop offset="1" stop-color="#6F7BF7"/>
</linearGradient>
<linearGradient id="paint1_linear_3_274" x1="0" y1="10.7776" x2="7.43665" y2="10.7776" gradientUnits="userSpaceOnUse">
<stop stop-color="#9BF8F4"/>
<stop offset="1" stop-color="#6F7AF8"/>
<stop offset="1" stop-color="#6F7BF7"/>
</linearGradient>
</defs>
</svg>
