<svg width="19" height="15" viewBox="0 0 19 15" fill="none" xmlns="http://www.w3.org/2000/svg">
<path d="M16.5866 3.90415C17.3067 3.39148 17.9549 2.77627 18.459 2.05853C17.8108 2.33195 17.0547 2.53702 16.2985 2.60538C17.0907 2.16106 17.6668 1.47749 17.9549 0.623037C17.2347 1.03318 16.4065 1.34078 15.5784 1.51167C14.8582 0.793929 13.886 0.383789 12.8058 0.383789C10.7173 0.383789 9.02498 1.99017 9.02498 3.97251C9.02498 4.24594 9.06099 4.51936 9.133 4.79279C6.00034 4.6219 3.19174 3.18641 1.31935 1.03318C0.99528 1.54585 0.815242 2.16106 0.815242 2.84463C0.815242 4.07505 1.46338 5.16875 2.5076 5.81814C1.89547 5.78396 1.28334 5.64725 0.779234 5.37382V5.408C0.779234 7.15109 2.07551 8.58658 3.80387 8.92836C3.51581 8.99672 3.15574 9.06508 2.83167 9.06508C2.57962 9.06508 2.36357 9.0309 2.11152 8.99672C2.57962 10.4322 3.98391 11.4576 5.64026 11.4917C4.34399 12.4487 2.72365 13.0298 0.959273 13.0298C0.635204 13.0298 0.347143 12.9956 0.059082 12.9614C1.71543 13.9868 3.69585 14.5678 5.85631 14.5678C12.8058 14.5678 16.5866 9.13343 16.5866 4.38265C16.5866 4.21176 16.5866 4.07505 16.5866 3.90415Z" fill="white"/>
</svg>
