<svg width="25" height="25" viewBox="0 0 25 25" fill="none" xmlns="http://www.w3.org/2000/svg">
<g clip-path="url(#clip0_3_16)">
<mask id="path-1-inside-1_3_16" fill="white">
<path fill-rule="evenodd" clip-rule="evenodd" d="M13.0543 14.1134C7.50148 14.1134 3 18.5607 3 24.0466C3 24.2911 3.00894 24.5334 3.02651 24.7734L23.0821 24.7734C23.0997 24.5334 23.1086 24.2911 23.1086 24.0466C23.1086 18.5607 18.6072 14.1134 13.0543 14.1134Z"/>
</mask>
<path d="M3.02651 24.7734L1.03185 24.9194L1.16756 26.7734L3.02651 26.7734L3.02651 24.7734ZM23.0821 24.7734L23.0821 26.7734L24.9411 26.7734L25.0768 24.9194L23.0821 24.7734ZM5 24.0466C5 19.688 8.58312 16.1134 13.0543 16.1134L13.0543 12.1134C6.41983 12.1134 1 17.4333 1 24.0466L5 24.0466ZM5.02117 24.6274C5.00716 24.436 5 24.2423 5 24.0466L1 24.0466C1 24.3398 1.01072 24.6309 1.03185 24.9194L5.02117 24.6274ZM23.0821 22.7734L3.02651 22.7734L3.02651 26.7734L23.0821 26.7734L23.0821 22.7734ZM21.1086 24.0466C21.1086 24.2423 21.1015 24.436 21.0875 24.6274L25.0768 24.9194C25.0979 24.6309 25.1086 24.3398 25.1086 24.0466L21.1086 24.0466ZM13.0543 16.1134C17.5255 16.1134 21.1086 19.688 21.1086 24.0466L25.1086 24.0466C25.1086 17.4333 19.6888 12.1134 13.0543 12.1134L13.0543 16.1134Z" fill="#F8F7F9" mask="url(#path-1-inside-1_3_16)"/>
<circle cx="13.1086" cy="8" r="5" stroke="#F8F7F9" stroke-width="2"/>
</g>
<defs>
<clipPath id="clip0_3_16">
<rect width="25" height="25" fill="white"/>
</clipPath>
</defs>
</svg>
